<?xml version="1.0" encoding="utf-8"?>
<!-- Generator: Adobe Illustrator 23.0.1, SVG Export Plug-In . SVG Version: 6.00 Build 0)  -->
<svg version="1.1" id="Layer_1" xmlns="http://www.w3.org/2000/svg" xmlns:xlink="http://www.w3.org/1999/xlink" x="0px" y="0px"
	 width="500px" height="500px" viewBox="0 0 500 500" enable-background="new 0 0 500 500" xml:space="preserve">
<rect x="200" y="230" fill="#005EB8" width="100" height="40"/>
<title>nhs-placeholder</title>
<desc>Created with Sketch.</desc>
<path fill="#FFFFFF" d="M296.254303,234.7376862l-2.1025085,6.4105377
	c-1.6798096-0.7817993-3.9675903-1.4724884-7.1856384-1.4724884c-3.4512634,0-6.2535706,0.5023956-6.2535706,3.089859
	c0,4.5623627,12.6477661,2.8599548,12.6477661,12.638916c0,8.8999634-8.3561401,11.2089233-15.9155884,11.2089233
	c-3.3595581,0-7.2344971-0.7887268-10.0787048-1.6668396l2.0536499-6.549408
	c1.7225952,1.1089478,5.1808777,1.8482361,8.0250549,1.8482361c2.7105408,0,6.9523315-0.5093689,6.9523315-3.8291931
	c0-5.1679688-12.6477051-3.2295685-12.6477051-12.3117676c0-8.3064575,7.3760376-10.7967377,14.5170593-10.7967377
	C290.2829285,233.307724,294.0600281,233.7259216,296.254303,234.7376862z"/>
<polygon fill="#FFFFFF" points="271.1912231,233.8595581 264.4231567,266.0555115 255.6992798,266.0555115 258.5924072,252.2660522 
	248.2743683,252.2660522 245.3803558,266.0555115 236.6565094,266.0555115 243.4254456,233.8595581 252.149292,233.8595581 
	249.5863647,246.1765442 259.8992004,246.1765442 262.4673767,233.8595581 "/>
<polygon fill="#FFFFFF" points="240.2064972,233.8595581 233.3030243,266.0555115 222.4696045,266.0555115 215.6587677,243.777359 
	215.5670471,243.777359 211.036087,266.0555115 202.8206177,266.0555115 209.779068,233.8595581 220.6491699,233.8595581 
	227.3255463,256.1854553 227.4172668,256.1854553 231.9910278,233.8595581 "/>
</svg>
